<?xml version="1.0" standalone="no"?>
<!DOCTYPE svg PUBLIC "-//W3C//DTD SVG 20010904//EN"
 "http://www.w3.org/TR/2001/REC-SVG-20010904/DTD/svg10.dtd">
<svg version="1.0" xmlns="http://www.w3.org/2000/svg"
 width="732.000000pt" height="650.000000pt" viewBox="0 0 732.000000 650.000000"
 preserveAspectRatio="xMidYMid meet">

<g transform="translate(0.000000,650.000000) scale(0.100000,-0.100000)"
fill="#000000" stroke="none">
<path d="M1408 4978 c-2 -6 -31 -13 -64 -16 -32 -3 -61 -8 -64 -12 -3 -4 -23
-11 -46 -17 -44 -11 -174 2 -174 18 0 5 -13 9 -30 9 -30 0 -30 -1 -30 -55 0
-40 -4 -57 -15 -61 -8 -4 -15 -12 -15 -19 0 -7 -4 -15 -9 -17 -5 -1 -25 -23
-45 -46 -25 -31 -36 -54 -36 -77 0 -26 -8 -39 -40 -65 -23 -19 -53 -40 -68
-47 -34 -18 -72 -53 -72 -67 0 -12 -44 -56 -55 -56 -17 0 -34 -37 -35 -72 0
-29 -5 -38 -22 -44 -12 -3 -33 -17 -47 -30 -25 -24 -26 -27 -25 -144 1 -66 -2
-120 -6 -120 -12 0 -40 -83 -40 -118 0 -40 43 -133 79 -172 77 -83 91 -101 91
-114 0 -8 6 -21 14 -28 7 -8 16 -23 20 -33 3 -11 21 -31 40 -45 18 -13 42 -42
52 -64 10 -21 31 -48 47 -60 25 -18 31 -19 60 -7 56 23 136 32 202 23 43 -6
82 -4 126 5 80 16 118 9 172 -31 26 -20 65 -37 102 -45 76 -17 95 -27 95 -51
0 -10 8 -21 19 -25 22 -7 17 -55 -5 -55 -8 0 -14 -5 -14 -12 0 -6 -8 -20 -17
-30 -13 -14 -17 -37 -17 -90 0 -55 4 -73 17 -83 13 -9 17 -28 17 -79 0 -46 4
-66 13 -66 6 0 18 -4 25 -9 11 -7 12 -12 1 -29 -11 -18 -9 -25 19 -56 18 -20
32 -48 32 -61 0 -13 5 -27 10 -30 6 -3 10 -32 10 -63 0 -45 -5 -63 -22 -82
-36 -40 -56 -90 -63 -158 -4 -34 -11 -65 -16 -68 -12 -7 -11 -128 1 -140 6 -6
15 -51 20 -100 10 -91 30 -195 40 -204 4 -4 25 -67 61 -180 4 -14 13 -56 19
-95 6 -38 15 -95 20 -126 6 -30 10 -77 10 -105 0 -39 5 -54 25 -74 40 -41 53
-50 73 -50 10 0 27 -7 38 -15 24 -18 68 -19 86 -2 7 6 31 21 53 32 22 11 91
72 153 135 103 106 178 181 274 275 20 20 39 51 42 68 4 21 19 42 45 61 43 31
51 56 51 158 0 70 13 108 38 108 11 0 32 18 48 42 19 27 45 48 74 61 68 30 81
48 93 135 16 121 9 203 -23 277 -14 32 -20 127 -11 168 8 34 61 97 82 97 14 0
10 -178 -6 -263 -8 -44 -13 -83 -10 -88 3 -4 74 -7 158 -6 l152 2 8 48 c5 26
12 47 16 47 10 -1 51 -70 51 -86 0 -11 16 -14 70 -14 l70 0 0 90 c0 67 3 89
13 88 8 -2 14 18 17 64 5 64 13 88 26 75 6 -6 18 -76 35 -217 6 -47 16 -88 22
-92 14 -9 119 -10 141 -2 9 3 16 16 16 28 0 12 7 31 15 42 8 10 15 33 15 50 0
19 6 34 15 38 8 3 15 14 15 24 0 17 41 72 55 72 9 0 6 -85 -4 -95 -5 -6 -11
-44 -13 -85 l-3 -75 152 -3 c144 -2 153 -1 165 18 16 25 26 25 58 0 33 -26
177 -29 186 -5 4 8 10 15 16 15 5 0 15 6 21 13 50 52 71 152 43 208 -9 18 -15
33 -14 34 52 33 77 43 97 38 23 -6 23 -9 17 -77 -3 -39 -11 -103 -18 -142 -16
-101 -13 -106 69 -102 67 3 68 3 71 33 2 17 7 35 12 40 4 6 11 51 15 100 10
127 31 167 79 149 21 -8 22 -86 0 -170 -8 -34 -14 -82 -12 -106 l3 -43 435 0
435 0 5 49 c3 27 11 51 18 54 6 2 12 -1 12 -6 0 -5 9 -19 20 -32 11 -13 20
-31 20 -41 0 -22 30 -31 91 -27 44 3 44 3 47 43 2 22 8 45 13 51 5 6 12 53 16
104 7 101 24 134 66 128 20 -3 22 -8 21 -63 -1 -33 -7 -99 -14 -147 -7 -49
-10 -95 -6 -103 4 -11 22 -15 74 -15 68 0 68 0 80 33 7 18 15 89 19 156 6 115
8 123 29 131 37 14 58 1 82 -52 23 -54 19 -67 -20 -68 -9 0 -20 -9 -23 -21 -9
-26 3 -89 15 -89 6 0 10 -9 10 -20 0 -10 12 -31 27 -45 25 -22 36 -25 104 -25
56 0 80 4 89 15 7 8 18 15 24 15 16 0 56 62 56 88 0 11 5 24 10 27 6 3 10 24
10 46 0 21 -4 39 -10 39 -5 0 -10 -20 -10 -44 0 -30 -5 -46 -15 -50 -8 -3 -15
-13 -15 -23 0 -9 -17 -32 -37 -50 -34 -29 -45 -33 -96 -33 -67 0 -102 18 -121
64 -11 26 -11 36 1 59 21 42 53 36 86 -15 20 -33 56 -37 80 -10 10 10 17 22
17 25 0 12 -34 47 -45 47 -19 0 -88 41 -106 63 -32 39 -19 102 36 165 17 19
29 22 96 22 71 0 78 -2 93 -26 10 -14 16 -39 14 -57 -3 -29 -6 -32 -40 -35
-21 -2 -38 1 -38 7 0 14 -29 41 -45 41 -19 0 -47 -29 -39 -42 3 -5 35 -23 71
-40 36 -17 67 -37 70 -45 9 -24 34 -15 27 11 -4 16 -1 25 10 29 20 8 22 111 4
132 -7 8 -19 21 -26 30 -10 11 -34 15 -102 15 -49 0 -92 -4 -95 -10 -8 -13
-52 -13 -57 1 -2 7 -81 11 -238 12 l-235 2 -3 -28 c-4 -32 -40 -57 -53 -36 -5
8 -9 24 -9 37 0 26 12 26 -380 24 l-265 -1 -22 -26 c-28 -31 -31 -31 -35 2
l-3 27 -264 -1 c-204 -2 -266 -5 -272 -15 -7 -10 -12 -11 -29 0 -12 7 -55 12
-108 12 -82 0 -91 -2 -117 -26 -28 -26 -40 -24 -47 9 -3 17 -16 19 -163 19
-286 0 -275 1 -275 -26 0 -13 -7 -29 -15 -36 -8 -7 -15 -20 -15 -29 0 -10 -6
-26 -14 -37 -14 -18 -16 -16 -36 29 -12 26 -18 56 -15 66 3 11 1 22 -6 26 -6
4 -67 8 -136 10 -107 2 -125 0 -129 -14 -9 -31 -29 -64 -40 -68 -6 -2 -14 9
-17 24 -12 53 -17 55 -135 57 -61 1 -114 5 -117 8 -10 10 18 48 40 55 11 3 47
23 79 45 58 38 61 39 188 48 71 5 133 12 137 14 5 3 98 10 207 16 110 6 253
15 319 20 66 5 181 9 255 9 74 1 171 8 215 16 44 8 142 14 218 15 88 0 146 4
160 12 14 7 85 14 187 16 91 2 170 8 175 12 6 4 102 11 215 14 113 4 239 11
280 17 41 5 170 14 285 19 430 19 650 37 718 56 15 5 17 21 17 146 l0 140 -42
-6 c-24 -3 -88 -10 -143 -14 -55 -5 -110 -14 -122 -20 -12 -7 -56 -12 -98 -12
-42 0 -86 -5 -98 -12 -12 -6 -78 -15 -147 -19 -69 -3 -143 -12 -165 -18 -22
-6 -71 -11 -110 -11 -38 0 -88 -7 -110 -15 -22 -8 -65 -14 -95 -15 -31 0 -82
-7 -113 -15 -32 -8 -84 -15 -115 -15 -31 0 -73 -4 -92 -9 -19 -5 -96 -14 -170
-21 -74 -6 -143 -16 -152 -21 -10 -5 -44 -9 -75 -9 -32 0 -76 -5 -98 -11 -22
-6 -87 -15 -145 -20 -58 -5 -121 -14 -140 -19 -19 -5 -66 -10 -105 -10 -38 0
-101 -7 -140 -15 -38 -8 -99 -15 -135 -15 -36 0 -83 -7 -105 -15 -22 -8 -75
-14 -118 -15 -43 0 -87 -5 -98 -11 -11 -5 -70 -14 -132 -19 -62 -5 -137 -14
-167 -19 -30 -5 -86 -10 -124 -10 l-68 -1 5 29 c3 16 18 48 33 73 21 35 37 48
74 61 26 9 56 17 66 17 11 0 39 6 64 14 56 18 256 56 292 56 15 0 29 4 32 9 3
5 31 12 62 16 32 4 64 11 73 15 9 5 43 14 76 20 33 6 96 17 140 26 44 8 109
19 145 25 36 6 69 15 74 20 6 5 30 9 54 9 24 0 53 5 65 12 12 7 49 15 82 19
33 4 78 12 100 17 22 6 93 18 158 28 65 9 120 21 123 25 3 5 20 9 38 9 19 0
56 6 82 14 49 14 129 30 234 45 30 4 68 13 83 19 16 7 43 12 62 12 18 0 46 7
61 15 16 8 47 15 70 15 22 0 63 7 90 15 27 8 65 15 85 15 20 0 50 7 65 15 16
8 41 15 57 15 15 0 53 6 85 14 63 16 150 34 374 76 26 5 56 13 67 19 11 6 35
11 54 11 19 0 54 7 77 15 23 8 62 15 85 15 28 0 50 7 66 21 23 19 24 28 27
150 l4 129 -54 0 c-29 -1 -71 -7 -93 -15 -22 -8 -52 -15 -66 -15 -14 0 -34 -7
-45 -15 -10 -8 -32 -15 -47 -15 -16 0 -38 -5 -49 -11 -12 -7 -49 -18 -82 -26
-137 -32 -161 -38 -171 -45 -5 -3 -31 -9 -57 -13 -27 -4 -48 -11 -48 -15 0 -4
-26 -12 -57 -18 -123 -24 -182 -37 -189 -44 -4 -5 -21 -8 -39 -8 -17 0 -40 -7
-51 -15 -10 -8 -32 -15 -47 -15 -15 0 -44 -7 -64 -15 -19 -8 -48 -15 -63 -15
-15 0 -44 -7 -63 -15 -20 -8 -50 -15 -67 -15 -17 0 -38 -7 -46 -15 -9 -8 -28
-15 -44 -15 -15 0 -41 -7 -56 -15 -16 -8 -38 -15 -48 -15 -18 0 -75 -14 -176
-45 -25 -7 -60 -16 -77 -20 -18 -4 -35 -11 -38 -16 -4 -5 -18 -9 -33 -9 -31
-1 -199 -43 -209 -53 -3 -4 -22 -7 -42 -7 -20 0 -45 -7 -55 -15 -11 -8 -36
-15 -55 -15 -20 -1 -47 -7 -61 -15 -14 -8 -43 -15 -65 -15 -22 0 -49 -7 -59
-15 -11 -8 -36 -15 -56 -15 -20 0 -40 -4 -46 -9 -9 -10 -196 -53 -297 -70 -26
-4 -53 -13 -59 -19 -7 -7 -29 -12 -49 -12 -20 0 -42 -7 -49 -15 -7 -8 -29 -15
-50 -15 -21 0 -54 -7 -73 -15 -20 -8 -49 -15 -65 -15 -16 0 -43 -7 -61 -16
-27 -14 -69 -16 -261 -15 -148 1 -231 -2 -235 -9 -16 -25 -25 -5 -25 55 0 60
15 106 41 125 4 3 11 18 14 33 4 15 11 27 16 27 5 0 9 7 9 15 0 8 -6 15 -14
15 -8 0 -21 -7 -30 -15 -8 -8 -21 -15 -29 -15 -8 0 -20 -7 -27 -15 -28 -34
-57 -7 -89 84 -11 33 -21 67 -21 75 0 7 -7 27 -15 42 -8 16 -15 48 -15 72 0
23 -4 42 -10 42 -5 0 -19 33 -31 73 -12 39 -26 74 -31 75 -4 2 -8 10 -8 19 0
15 -19 65 -46 116 -8 16 -14 35 -14 42 0 7 -6 26 -14 42 -18 37 -37 92 -43
125 -3 15 -11 32 -19 39 -14 12 -54 3 -54 -12 0 -11 -83 -12 -95 0 -6 4 -44
18 -85 31 -41 12 -78 27 -81 32 -4 6 -39 13 -78 16 -63 4 -74 2 -91 -16 -11
-11 -22 -32 -26 -46 -8 -34 -18 -39 -59 -32 -40 8 -95 61 -95 92 0 42 -11 54
-46 54 -21 0 -37 6 -40 14 -3 8 -13 17 -22 20 -9 3 -25 10 -34 16 -10 5 -26
14 -35 19 -15 6 -19 25 -23 99 -7 134 -4 132 -206 132 -113 0 -163 -3 -166
-12z m1149 -1368 c50 -6 128 -10 172 -10 l81 0 0 -44 c0 -47 -11 -56 -90 -72
-52 -10 -87 -41 -98 -88 -6 -23 -13 -219 -16 -456 -5 -414 -15 -548 -42 -581
-8 -8 -14 -21 -14 -27 0 -7 -3 -12 -7 -12 -5 0 -15 -13 -25 -29 -17 -31 -73
-71 -143 -104 -32 -16 -64 -20 -160 -20 -115 -1 -122 0 -165 28 -54 34 -116
97 -126 128 -4 12 -12 25 -18 29 -7 5 -11 43 -11 101 l0 93 36 37 c34 35 42
38 98 40 81 2 104 -20 109 -108 3 -51 0 -71 -22 -117 -41 -86 -33 -125 29
-145 62 -20 105 8 146 96 20 42 22 74 34 555 13 493 13 512 -5 541 -22 36 -71
63 -120 67 -32 3 -35 6 -38 37 -2 19 -1 44 2 55 5 22 9 22 153 19 81 -2 189
-8 240 -13z m487 -748 c-1 -30 -7 -59 -13 -65 -6 -6 -11 -45 -11 -88 0 -42 -4
-89 -9 -105 -5 -16 -12 -46 -16 -66 -5 -35 -8 -38 -39 -38 -48 0 -62 21 -47
70 6 22 15 86 18 143 3 56 9 107 14 112 4 6 11 30 15 54 l7 42 41 -3 41 -3 -1
-53z m173 41 c25 -73 75 -173 85 -173 12 0 21 68 15 112 -5 34 -2 44 16 59 12
10 35 18 51 19 l29 0 -6 -122 c-6 -107 -17 -201 -33 -275 -4 -19 -11 -23 -42
-23 -32 0 -40 4 -53 33 -40 81 -59 125 -59 136 0 7 -8 11 -17 9 -14 -3 -20
-21 -30 -88 -6 -47 -12 -86 -12 -87 -1 -2 -19 -3 -41 -3 l-40 0 0 43 c0 24 4
47 9 52 6 6 12 71 15 147 5 159 13 178 69 178 27 0 39 -5 44 -17z m348 -19 c8
-20 16 -66 16 -103 1 -36 4 -79 8 -96 l6 -30 23 32 c12 17 22 37 22 45 0 7 6
22 14 33 7 11 16 37 20 58 4 20 11 37 16 37 5 0 10 12 12 28 3 23 8 27 41 30
59 5 60 -9 1 -143 -7 -16 -20 -46 -28 -67 -9 -20 -16 -43 -16 -51 0 -9 -4 -19
-10 -22 -5 -3 -10 -17 -10 -30 0 -13 -7 -30 -15 -39 -8 -8 -15 -21 -15 -28 0
-26 -24 -38 -72 -38 -47 0 -47 0 -53 38 -3 20 -8 46 -11 57 -3 11 -12 72 -20
135 -8 63 -17 132 -20 153 l-6 37 41 0 c37 0 42 -3 56 -36z m525 7 c0 -48 -22
-61 -100 -61 -62 0 -69 -2 -76 -22 -10 -32 20 -48 88 -48 l59 0 -3 -42 -3 -43
-73 -1 c-75 0 -91 -9 -92 -44 0 -31 23 -40 98 -40 l73 0 -3 -42 -3 -43 -124
-3 c-68 -1 -128 1 -133 6 -4 4 -3 51 3 103 6 52 13 135 16 184 8 131 1 125
148 125 l125 0 0 -29z m284 10 c12 -13 16 -32 14 -58 -3 -36 -5 -38 -38 -38
-27 0 -37 5 -45 23 -12 28 -58 27 -63 -1 -4 -20 29 -57 50 -57 16 0 80 -38 90
-54 16 -23 8 -120 -11 -149 -42 -64 -147 -88 -212 -50 -37 22 -57 79 -40 112
17 31 43 26 80 -14 33 -37 50 -42 82 -25 32 17 24 55 -15 74 -19 9 -37 16 -40
16 -8 0 -28 16 -56 44 -15 15 -20 33 -20 71 0 42 5 57 31 88 30 37 31 37 103
37 59 0 76 -4 90 -19z m374 -19 c4 -44 -12 -62 -57 -62 -53 0 -61 -13 -61 -97
0 -40 -6 -92 -14 -115 -8 -24 -16 -56 -18 -73 -3 -28 -6 -30 -43 -30 l-40 0
-3 64 c-2 43 1 67 9 72 8 4 14 40 17 93 l4 85 -43 3 c-39 3 -44 6 -47 30 -2
15 2 36 8 48 10 19 18 20 148 18 l137 -3 3 -33z m180 -51 c2 -65 7 -87 20 -97
25 -19 32 -17 32 10 0 14 5 37 12 53 6 15 14 48 17 73 l6 45 63 3 c69 3 84 -9
64 -51 -6 -12 -13 -67 -16 -121 -3 -55 -10 -102 -15 -106 -6 -3 -11 -35 -13
-70 -3 -64 -3 -65 -32 -65 l-29 0 2 80 c1 43 5 83 8 88 3 4 2 20 -2 34 -8 34
-25 18 -35 -34 -31 -142 -45 -173 -80 -173 -33 0 -40 24 -40 131 0 70 -6 84
-30 69 -10 -6 -17 -36 -21 -95 -6 -93 -14 -107 -59 -103 -28 3 -28 -3 -11 133
7 50 16 131 22 180 6 50 13 94 16 98 3 4 30 7 61 5 l57 -3 3 -84z m531 75 c8
-9 8 -22 0 -44 -11 -31 -12 -31 -87 -34 -73 -3 -77 -4 -80 -27 -5 -32 12 -41
79 -41 31 0 58 -2 61 -5 3 -3 2 -22 -1 -43 l-6 -37 -65 -2 c-36 -1 -71 -2 -78
-2 -9 -1 -12 -13 -10 -38 l3 -38 75 -5 c81 -5 89 -13 76 -66 -6 -24 -8 -24
-126 -24 -65 0 -121 3 -123 8 -12 18 24 378 40 405 2 4 55 7 117 7 83 0 117
-4 125 -14z m186 -40 c14 -30 25 -61 25 -70 0 -8 4 -17 9 -20 4 -3 11 -19 14
-36 10 -49 24 -35 30 30 3 34 10 66 15 73 6 7 12 26 14 42 3 27 7 30 39 33 45
4 52 -10 33 -63 -8 -22 -14 -71 -14 -110 0 -38 -7 -95 -15 -125 -8 -30 -15
-70 -15 -87 0 -32 -2 -33 -40 -33 -30 0 -42 5 -46 18 -3 9 -12 29 -20 44 -8
14 -14 33 -14 42 0 9 -4 16 -8 16 -5 0 -14 19 -21 41 -11 38 -14 40 -28 26
-10 -9 -18 -45 -23 -92 -4 -42 -12 -81 -18 -87 -5 -5 -22 -8 -38 -6 -28 3 -29
5 -28 53 1 109 22 292 37 328 14 33 20 37 52 37 33 0 37 -3 60 -54z m523 14
c4 -39 -16 -60 -59 -60 -41 0 -59 -48 -59 -159 0 -51 -4 -91 -10 -91 -5 0 -12
-16 -16 -36 -6 -34 -8 -35 -48 -32 l-41 3 2 49 c1 27 6 53 12 59 6 6 11 52 11
109 0 95 -1 98 -22 98 -13 0 -34 3 -46 7 -21 5 -23 10 -17 42 4 20 9 39 12 44
2 4 66 6 141 5 l137 -3 3 -35z m-2036 -170 c16 -15 19 -23 11 -31 -19 -19 -48
-6 -51 24 -4 32 11 35 40 7z"/>
</g>
</svg>
